<?xml version="1.0" encoding="UTF-8" standalone="no"?>
<!-- Generator: Gravit.io -->
<svg xmlns="http://www.w3.org/2000/svg" xmlns:xlink="http://www.w3.org/1999/xlink" style="isolation:isolate" viewBox="806.967 411.647 256.066 169.706" width="256.066pt" height="169.706pt"><defs><clipPath id="_clipPath_AeNYTAkTHAHpHjcuVXdiohJjCCHDx2df"><rect x="806.967" y="411.647" width="256.066" height="169.706"/></clipPath></defs><g clip-path="url(#_clipPath_AeNYTAkTHAHpHjcuVXdiohJjCCHDx2df)"><path d=" M 913.033 560.14 L 891.82 581.353 L 806.967 496.5 L 828.18 475.287 L 913.033 560.14 Z  M 828.18 517.713 L 806.967 496.5 L 828.18 475.287 L 828.18 517.713 Z  M 913.033 560.14 L 891.82 581.353 L 870.607 560.14 L 913.033 560.14 Z " fill-rule="evenodd" fill="rgb(38,117,32)"/><path d=" M 913.033 432.86 L 891.82 411.647 L 806.967 496.5 L 828.18 517.713 L 913.033 432.86 Z  M 828.18 475.287 L 806.967 496.5 L 828.18 517.713 L 828.18 475.287 Z  M 913.033 432.86 L 891.82 411.647 L 870.607 432.86 L 913.033 432.86 Z " fill-rule="evenodd" fill="rgb(31,204,72)"/><path d=" M 956.967 560.14 L 978.18 581.353 L 1063.033 496.5 L 1041.82 475.287 L 956.967 560.14 Z  M 1041.82 517.713 L 1063.033 496.5 L 1041.82 475.287 L 1041.82 517.713 Z  M 956.967 560.14 L 978.18 581.353 L 999.393 560.14 L 956.967 560.14 Z " fill-rule="evenodd" fill="rgb(38,117,32)"/><path d=" M 956.967 432.86 L 978.18 411.647 L 1063.033 496.5 L 1041.82 517.713 L 956.967 432.86 Z  M 1041.82 475.287 L 1063.033 496.5 L 1041.82 517.713 L 1041.82 475.287 Z  M 956.967 432.86 L 978.18 411.647 L 999.393 432.86 L 956.967 432.86 Z " fill-rule="evenodd" fill="rgb(31,204,72)"/></g></svg>