<?xml version="1.0" encoding="UTF-8" standalone="no"?>
<!-- Generator: Gravit.io -->
<svg xmlns="http://www.w3.org/2000/svg" xmlns:xlink="http://www.w3.org/1999/xlink" style="isolation:isolate" viewBox="798.842 394.147 272.316 204.706" width="272.316pt" height="204.706pt"><defs><clipPath id="_clipPath_AwqF045TRJP3okfaH77kvvp4gZKQyby3"><rect x="798.842" y="394.147" width="272.316" height="204.706"/></clipPath></defs><g clip-path="url(#_clipPath_AwqF045TRJP3okfaH77kvvp4gZKQyby3)"><path d=" M 798.842 580.022 L 831.342 580.022 L 831.342 394.147 L 798.842 394.147 L 798.842 580.022 Z " fill="rgb(0,83,0)"/><path d=" M 921.158 577.64 L 899.945 598.853 L 815.092 514 L 836.305 492.787 L 921.158 577.64 Z  M 836.305 535.213 L 815.092 514 L 836.305 492.787 L 836.305 535.213 Z  M 921.158 577.64 L 899.945 598.853 L 878.732 577.64 L 921.158 577.64 Z " fill-rule="evenodd" fill="rgb(38,117,32)"/><path d=" M 921.158 450.36 L 899.945 429.147 L 815.092 514 L 836.305 535.213 L 921.158 450.36 Z  M 836.305 492.787 L 815.092 514 L 836.305 535.213 L 836.305 492.787 Z  M 921.158 450.36 L 899.945 429.147 L 878.732 450.36 L 921.158 450.36 Z " fill-rule="evenodd" fill="rgb(31,204,72)"/><path d=" M 958.276 577.64 L 925.776 577.64 L 925.776 394.147 L 958.276 394.147 L 958.276 577.64 Z " fill="rgb(0,83,0)"/><path d=" M 965.092 577.64 L 986.305 598.853 L 1071.158 514 L 1049.945 492.787 L 965.092 577.64 Z  M 1049.945 535.213 L 1071.158 514 L 1049.945 492.787 L 1049.945 535.213 Z  M 965.092 577.64 L 986.305 598.853 L 1007.518 577.64 L 965.092 577.64 Z " fill-rule="evenodd" fill="rgb(38,117,32)"/><path d=" M 965.092 450.36 L 986.305 429.147 L 1071.158 514 L 1049.945 535.213 L 965.092 450.36 Z  M 1049.945 492.787 L 1071.158 514 L 1049.945 535.213 L 1049.945 492.787 Z  M 965.092 450.36 L 986.305 429.147 L 1007.518 450.36 L 965.092 450.36 Z " fill-rule="evenodd" fill="rgb(31,204,72)"/></g></svg>